<svg width="22" height="24" viewBox="0 0 22 24" fill="none" xmlns="http://www.w3.org/2000/svg">
<g clip-path="url(#clip0_280_11744)">
<path fill-rule="evenodd" clip-rule="evenodd" d="M11 1.02344C7.20343 1.02344 4.125 4.23852 4.125 8.20363V8.6287C4.125 10.4181 3.21326 12.0787 1.73157 12.9659L1.7312 12.9661C0.805515 13.5211 0 14.3182 0 15.3838C0 16.1939 0.472142 16.8513 1.07238 17.3454C1.68036 17.8458 2.5175 18.265 3.49064 18.6037C5.44412 19.2837 8.09906 19.6919 11 19.6919C13.9009 19.6919 16.5559 19.2837 18.5094 18.6037C19.4825 18.265 20.3196 17.8458 20.9276 17.3454C21.5279 16.8513 22 16.1939 22 15.3838C22 14.3182 21.1945 13.5211 20.2688 12.9661L20.2681 12.9656C18.7869 12.0801 17.875 10.4184 17.875 8.6287V8.20363C17.875 4.23852 14.7966 1.02344 11 1.02344ZM5.5 8.20363C5.5 5.03162 7.96282 2.45948 11 2.45948C14.0372 2.45948 16.5 5.03162 16.5 8.20363V8.6287C16.5 10.9256 17.6695 13.0663 19.5842 14.2115C20.4213 14.7134 20.625 15.1397 20.625 15.3838C20.625 15.5653 20.52 15.8525 20.0765 16.2175C19.6408 16.5761 18.9677 16.9305 18.0746 17.2414C16.2956 17.8606 13.7943 18.2559 11 18.2559C8.20569 18.2559 5.70438 17.8606 3.92542 17.2414C3.03235 16.9305 2.35922 16.5761 1.92348 16.2175C1.48001 15.8525 1.375 15.5653 1.375 15.3838C1.375 15.1397 1.57874 14.7134 2.4158 14.2115C4.33014 13.0651 5.5 10.9261 5.5 8.6287V8.20363ZM14.7815 21.4156C14.9335 21.0522 14.7748 20.6289 14.4269 20.4701C14.079 20.3112 13.6737 20.477 13.5216 20.8404C13.0963 21.8565 12.1264 22.564 11 22.564C9.87399 22.564 8.90483 21.8567 8.47808 20.8409C8.32552 20.4778 7.91998 20.3126 7.57228 20.4719C7.22458 20.6312 7.06639 21.0548 7.21895 21.4179C7.85645 22.9353 9.30729 24.0001 11 24.0001C12.6924 24.0001 14.1453 22.9355 14.7815 21.4156Z" fill="#717D8A"/>
</g>
<path d="M19.9531 3.76961C19.9531 5.59605 18.5408 7.03922 16.8438 7.03922C15.1467 7.03922 13.7344 5.59605 13.7344 3.76961C13.7344 1.94316 15.1467 0.5 16.8438 0.5C18.5408 0.5 19.9531 1.94316 19.9531 3.76961Z" fill="#BB251A" stroke="#FAFAFA"/>
<defs>
<clipPath id="clip0_280_11744">
<rect width="22" height="22.9766" fill="white" transform="translate(0 1.02344)"/>
</clipPath>
</defs>
</svg>
