<svg width="13" height="15" viewBox="0 0 13 15" fill="none" xmlns="http://www.w3.org/2000/svg">
<path d="M1.83464 2.9325V10.4167C1.83452 11.1572 2.11607 11.87 2.62218 12.4106C3.12829 12.9511 3.82106 13.2789 4.55997 13.3275L4.7513 13.3333H9.90097C9.78035 13.6745 9.55695 13.9699 9.26152 14.1788C8.96609 14.3877 8.61315 14.4999 8.2513 14.5H4.16797C3.23971 14.5 2.34947 14.1313 1.6931 13.4749C1.03672 12.8185 0.667969 11.9283 0.667969 11V4.58333C0.667779 4.22129 0.779885 3.86809 0.988835 3.57243C1.19779 3.27676 1.49329 3.05318 1.83464 2.9325ZM10.5846 0.5C11.0488 0.5 11.4939 0.684375 11.8221 1.01256C12.1503 1.34075 12.3346 1.78587 12.3346 2.25V10.4167C12.3346 10.8808 12.1503 11.3259 11.8221 11.6541C11.4939 11.9823 11.0488 12.1667 10.5846 12.1667H4.7513C4.28717 12.1667 3.84205 11.9823 3.51387 11.6541C3.18568 11.3259 3.0013 10.8808 3.0013 10.4167V2.25C3.0013 1.78587 3.18568 1.34075 3.51387 1.01256C3.84205 0.684375 4.28717 0.5 4.7513 0.5H10.5846ZM10.5846 1.66667H4.7513C4.59659 1.66667 4.44822 1.72812 4.33882 1.83752C4.22943 1.94692 4.16797 2.09529 4.16797 2.25V10.4167C4.16797 10.5714 4.22943 10.7197 4.33882 10.8291C4.44822 10.9385 4.59659 11 4.7513 11H10.5846C10.7393 11 10.8877 10.9385 10.9971 10.8291C11.1065 10.7197 11.168 10.5714 11.168 10.4167V2.25C11.168 2.09529 11.1065 1.94692 10.9971 1.83752C10.8877 1.72812 10.7393 1.66667 10.5846 1.66667Z" fill="#A8B0B9"/>
</svg>
