<svg width="13" height="14" viewBox="0 0 13 14" fill="none" xmlns="http://www.w3.org/2000/svg">
<path fill-rule="evenodd" clip-rule="evenodd" d="M5.63722 0.799988C2.52894 0.799988 0 3.32893 0 6.43721C0 9.54567 2.52894 12.0744 5.63722 12.0744C7.00487 12.0744 8.2603 11.5849 9.23751 10.7719L11.9123 13.4467C12.0139 13.5483 12.147 13.5991 12.2802 13.5991C12.4132 13.5991 12.5464 13.5483 12.6481 13.4467C12.8514 13.2435 12.8514 12.914 12.6481 12.7109L9.97318 10.036C10.7854 9.05897 11.2744 7.80414 11.2744 6.43721C11.2744 3.32893 8.74568 0.799988 5.63722 0.799988ZM5.63596 11.0321C3.10146 11.0321 1.03945 8.97008 1.03945 6.43559C1.03945 3.9011 3.10146 1.83906 5.63596 1.83906C8.17045 1.83906 10.2325 3.90107 10.2325 6.43557C10.2325 8.97006 8.17045 11.0321 5.63596 11.0321Z" fill="#717D8A"/>
</svg>
