<svg width="18" height="18" viewBox="0 0 18 18" fill="none" xmlns="http://www.w3.org/2000/svg">
<path d="M16.6005 17.6162L10.1823 11.3348C9.71582 11.7127 9.16086 12.0118 8.51743 12.2322C7.87399 12.4526 7.19035 12.5628 6.46649 12.5628C4.64879 12.5628 3.11662 11.9488 1.86997 10.7209C0.623325 9.49291 0 8.01309 0 6.28138C0 4.54967 0.627346 3.06985 1.88204 1.84191C3.13673 0.61397 4.64879 0 6.41823 0C8.20375 0 9.71582 0.61397 10.9544 1.84191C12.193 3.06985 12.8123 4.54967 12.8123 6.28138C12.8123 6.97406 12.7078 7.62739 12.4987 8.24136C12.2895 8.85533 11.9759 9.43781 11.5576 9.98881L18 16.2466L16.6005 17.6162ZM6.44236 10.6736C7.68096 10.6736 8.73458 10.2446 9.60322 9.38665C10.4718 8.52867 10.9062 7.49358 10.9062 6.28138C10.9062 5.06918 10.4718 4.0341 9.60322 3.17611C8.73458 2.31813 7.68096 1.88914 6.44236 1.88914C5.17158 1.88914 4.09785 2.31813 3.22118 3.17611C2.3445 4.0341 1.90617 5.06918 1.90617 6.28138C1.90617 7.49358 2.3445 8.52867 3.22118 9.38665C4.09785 10.2446 5.17158 10.6736 6.44236 10.6736Z" fill="#A8B0B9"/>
</svg>