<svg width="18" height="16" viewBox="0 0 18 16" fill="none" xmlns="http://www.w3.org/2000/svg">
<path d="M7.29692 7.18769C6.24826 7.18769 5.38894 6.8527 4.71897 6.18272C4.04899 5.51274 3.714 4.65343 3.714 3.60477C3.714 2.54154 4.04899 1.67494 4.71897 1.00497C5.38894 0.334989 6.24826 0 7.29692 0C8.34558 0 9.20854 0.334989 9.8858 1.00497C10.5631 1.67494 10.9017 2.54154 10.9017 3.60477C10.9017 4.65343 10.5631 5.51274 9.8858 6.18272C9.20854 6.8527 8.34558 7.18769 7.29692 7.18769ZM0.852036 14.8123C0.619 14.8123 0.418736 14.7322 0.251241 14.572C0.0837471 14.4118 0 14.2079 0 13.9603V12.431C0 11.8338 0.156571 11.3095 0.469712 10.858C0.782853 10.4065 1.17974 10.0715 1.66038 9.85303C2.70904 9.38696 3.70308 9.04833 4.6425 8.83714C5.58193 8.62595 6.46673 8.52036 7.29692 8.52036H7.99603C7.89408 8.72426 7.79576 8.98643 7.70109 9.30685C7.60642 9.62728 7.54452 9.94042 7.51539 10.2463H7.31877C6.53227 10.2463 5.73486 10.33 4.92651 10.4975C4.11817 10.665 3.28434 10.9599 2.42502 11.3823C2.19199 11.4988 2.01721 11.6554 1.9007 11.852C1.78418 12.0487 1.72592 12.2562 1.72592 12.4747V13.0864H7.4717C7.54452 13.4214 7.66468 13.7418 7.83218 14.0477C7.99967 14.3535 8.17809 14.6084 8.36743 14.8123H0.852036ZM7.29692 5.43992C7.83582 5.43992 8.28004 5.26514 8.62959 4.91559C8.97915 4.56604 9.15392 4.1291 9.15392 3.60477C9.15392 3.05131 8.97915 2.60344 8.62959 2.26117C8.28004 1.9189 7.83582 1.74777 7.29692 1.74777C6.75803 1.74777 6.3138 1.9189 5.96425 2.26117C5.6147 2.60344 5.43992 3.04403 5.43992 3.58292C5.43992 4.12181 5.6147 4.56604 5.96425 4.91559C6.3138 5.26514 6.75803 5.43992 7.29692 5.43992ZM13.9821 12.7805C14.4482 12.7805 14.8414 12.613 15.1619 12.2781C15.4823 11.9431 15.6425 11.5425 15.6425 11.0765C15.6425 10.625 15.4786 10.2354 15.1509 9.90765C14.8232 9.57994 14.4336 9.41609 13.9821 9.41609C13.5161 9.41609 13.1192 9.57994 12.7915 9.90765C12.4638 10.2354 12.2999 10.6322 12.2999 11.0983C12.2999 11.5498 12.4638 11.9431 12.7915 12.2781C13.1192 12.613 13.5161 12.7805 13.9821 12.7805V12.7805ZM13.0427 14.1351C12.8097 14.0768 12.5766 13.9821 12.3436 13.851C12.1106 13.72 11.9139 13.5743 11.7537 13.4141L10.8143 13.6107C10.7269 13.6544 10.6322 13.6544 10.5303 13.6107C10.4283 13.567 10.3555 13.5015 10.3118 13.4141L10.0278 12.8898C9.96955 12.8024 9.9477 12.7077 9.96226 12.6058C9.97683 12.5038 10.0205 12.4091 10.0933 12.3217L10.9017 11.5789C10.8726 11.477 10.858 11.3131 10.858 11.0874C10.858 10.8616 10.8726 10.7051 10.9017 10.6177L10.0933 9.85303C10.0205 9.78021 9.97683 9.69282 9.96226 9.59086C9.9477 9.48891 9.96955 9.39424 10.0278 9.30685L10.3118 8.76068C10.3555 8.67329 10.4283 8.61139 10.5303 8.57498C10.6322 8.53856 10.7269 8.53492 10.8143 8.56405L11.7537 8.78252C11.9139 8.62231 12.1106 8.47302 12.3436 8.33466C12.5766 8.19629 12.8097 8.09798 13.0427 8.03972L13.2175 6.94737C13.232 6.81629 13.2757 6.71797 13.3486 6.65243C13.4214 6.58689 13.5233 6.55412 13.6544 6.55412H14.3098C14.4263 6.55412 14.521 6.58689 14.5938 6.65243C14.6667 6.71797 14.7176 6.81629 14.7468 6.94737L14.9215 8.03972C15.14 8.09798 15.3694 8.19629 15.6097 8.33466C15.8501 8.47302 16.0503 8.62231 16.2105 8.78252L17.1281 8.5859C17.2301 8.54221 17.3284 8.53856 17.423 8.57498C17.5177 8.61139 17.5942 8.68057 17.6524 8.78252L17.9364 9.30685C17.9947 9.39424 18.0129 9.48527 17.9911 9.57994C17.9692 9.67461 17.9146 9.76564 17.8272 9.85303L17.0407 10.6177C17.0844 10.7196 17.1063 10.8798 17.1063 11.0983C17.1063 11.3168 17.0844 11.477 17.0407 11.5789L17.8491 12.3217C17.9219 12.4091 17.9692 12.5038 17.9911 12.6058C18.0129 12.7077 17.9947 12.8024 17.9364 12.8898L17.6306 13.4141C17.5869 13.5015 17.5177 13.567 17.423 13.6107C17.3284 13.6544 17.2301 13.6544 17.1281 13.6107L16.2105 13.4141C16.0503 13.5743 15.8501 13.72 15.6097 13.851C15.3694 13.9821 15.14 14.0768 14.9215 14.1351L14.7468 15.2493C14.7322 15.3658 14.6849 15.4568 14.6048 15.5223C14.5247 15.5879 14.4263 15.6207 14.3098 15.6207H13.6544C13.5233 15.6207 13.4214 15.5879 13.3486 15.5223C13.2757 15.4568 13.232 15.3658 13.2175 15.2493L13.0427 14.1351Z" fill="#4F5B67"/>
</svg>
