<svg width="20" height="15" viewBox="0 0 20 15" fill="none" xmlns="http://www.w3.org/2000/svg">
<path d="M0 14.0498V11.9231C0 11.3952 0.135747 10.9163 0.40724 10.4864C0.678733 10.0566 1.05581 9.73605 1.53846 9.52489C2.63952 9.04223 3.63122 8.69532 4.51358 8.48416C5.39593 8.273 6.30468 8.16742 7.23982 8.16742C8.17496 8.16742 9.07994 8.273 9.95475 8.48416C10.8296 8.69532 11.8175 9.04223 12.9186 9.52489C13.4012 9.73605 13.7821 10.0566 14.0611 10.4864C14.3401 10.9163 14.4796 11.3952 14.4796 11.9231V14.0498H0ZM15.8371 14.0498V11.9231C15.8371 10.9729 15.5958 10.1923 15.1131 9.58145C14.6305 8.97059 13.997 8.47662 13.2127 8.09955C14.2534 8.22021 15.2338 8.39744 16.1538 8.63122C17.0739 8.86501 17.8205 9.13273 18.3937 9.43439C18.8914 9.72097 19.2836 10.0754 19.5701 10.4977C19.8567 10.9201 20 11.3952 20 11.9231V14.0498H15.8371ZM7.23982 6.78733C6.24434 6.78733 5.42986 6.47059 4.79638 5.8371C4.1629 5.20362 3.84615 4.38914 3.84615 3.39367C3.84615 2.39819 4.1629 1.58371 4.79638 0.950226C5.42986 0.316742 6.24434 0 7.23982 0C8.23529 0 9.04977 0.316742 9.68326 0.950226C10.3167 1.58371 10.6335 2.39819 10.6335 3.39367C10.6335 4.38914 10.3167 5.20362 9.68326 5.8371C9.04977 6.47059 8.23529 6.78733 7.23982 6.78733V6.78733ZM15.3846 3.39367C15.3846 4.38914 15.0679 5.20362 14.4344 5.8371C13.8009 6.47059 12.9864 6.78733 11.991 6.78733C11.825 6.78733 11.6403 6.77602 11.4367 6.75339C11.233 6.73077 11.0483 6.68929 10.8824 6.62896C11.2443 6.25189 11.5196 5.78808 11.7081 5.23756C11.8967 4.68703 11.991 4.0724 11.991 3.39367C11.991 2.71493 11.8967 2.11539 11.7081 1.59502C11.5196 1.07466 11.2443 0.595777 10.8824 0.158371C11.0483 0.113122 11.233 0.075415 11.4367 0.045249C11.6403 0.0150831 11.825 0 11.991 0C12.9864 0 13.8009 0.316742 14.4344 0.950226C15.0679 1.58371 15.3846 2.39819 15.3846 3.39367V3.39367ZM1.35747 12.6923H13.1222V11.9231C13.1222 11.6817 13.0505 11.448 12.9072 11.2217C12.764 10.9955 12.5867 10.8371 12.3756 10.7466C11.2896 10.264 10.3771 9.93967 9.63801 9.77376C8.89895 9.60784 8.09955 9.52489 7.23982 9.52489C6.38009 9.52489 5.57692 9.60784 4.83032 9.77376C4.08371 9.93967 3.16742 10.264 2.08145 10.7466C1.87029 10.8371 1.69683 10.9955 1.56109 11.2217C1.42534 11.448 1.35747 11.6817 1.35747 11.9231V12.6923ZM7.23982 5.42987C7.82805 5.42987 8.31448 5.23756 8.6991 4.85294C9.08371 4.46833 9.27602 3.9819 9.27602 3.39367C9.27602 2.80543 9.08371 2.319 8.6991 1.93439C8.31448 1.54977 7.82805 1.35747 7.23982 1.35747C6.65158 1.35747 6.16516 1.54977 5.78054 1.93439C5.39593 2.319 5.20362 2.80543 5.20362 3.39367C5.20362 3.9819 5.39593 4.46833 5.78054 4.85294C6.16516 5.23756 6.65158 5.42987 7.23982 5.42987Z" fill="#4F5B67"/>
</svg>
