<svg width="12" height="14" viewBox="0 0 12 14" fill="none" xmlns="http://www.w3.org/2000/svg">
<path d="M7.63008 9.16155C7.92178 8.94064 8.15813 8.65494 8.32046 8.32701C8.48279 7.99909 8.56666 7.63791 8.56544 7.272C8.56544 6.63933 8.31411 6.03258 7.86675 5.58521C7.41939 5.13785 6.81263 4.88652 6.17996 4.88652C5.54729 4.88652 4.94054 5.13785 4.49318 5.58521C4.04581 6.03258 3.79449 6.63933 3.79449 7.272C3.79327 7.63791 3.87713 7.99909 4.03946 8.32701C4.20179 8.65494 4.43814 8.94064 4.72984 9.16155C3.98786 9.44134 3.34107 9.92697 2.8654 10.5614C2.80547 10.6414 2.77973 10.7418 2.79386 10.8407C2.80799 10.9396 2.86082 11.0288 2.94074 11.0888C3.02065 11.1487 3.1211 11.1744 3.21999 11.1603C3.31889 11.1462 3.40811 11.0933 3.46805 11.0134C3.78381 10.5924 4.19325 10.2507 4.66396 10.0154C5.13466 9.78 5.6537 9.65748 6.17996 9.65748C6.70623 9.65748 7.22526 9.78 7.69597 10.0154C8.16667 10.2507 8.57612 10.5924 8.89187 11.0134C8.95181 11.0933 9.04104 11.1462 9.13993 11.1603C9.23882 11.1744 9.33928 11.1487 9.41919 11.0888C9.45876 11.0591 9.4921 11.0219 9.5173 10.9793C9.5425 10.9368 9.55907 10.8897 9.56607 10.8407C9.57306 10.7917 9.57034 10.7419 9.55807 10.694C9.54579 10.646 9.5242 10.601 9.49452 10.5614C9.01885 9.92697 8.37207 9.44134 7.63008 9.16155V9.16155ZM6.17996 5.63983C6.50278 5.63983 6.81834 5.73556 7.08675 5.9149C7.35516 6.09425 7.56436 6.34916 7.68789 6.6474C7.81143 6.94564 7.84375 7.27381 7.78077 7.59042C7.71779 7.90703 7.56234 8.19785 7.33408 8.42612C7.10582 8.65438 6.81499 8.80983 6.49838 8.87281C6.18177 8.93578 5.8536 8.90346 5.55536 8.77993C5.25712 8.65639 5.00221 8.44719 4.82286 8.17878C4.64352 7.91037 4.54779 7.59481 4.54779 7.272C4.54945 6.83963 4.72194 6.42544 5.02767 6.11971C5.33341 5.81397 5.74759 5.64148 6.17996 5.63983V5.63983ZM10.6998 0.366669H1.66011C1.42702 0.366669 1.20348 0.459263 1.03866 0.624081C0.873844 0.788899 0.78125 1.01244 0.78125 1.24553V12.2941C0.78125 12.5271 0.873844 12.7507 1.03866 12.9155C1.20348 13.0803 1.42702 13.1729 1.66011 13.1729H10.6998C10.9329 13.1729 11.1564 13.0803 11.3213 12.9155C11.4861 12.7507 11.5787 12.5271 11.5787 12.2941V1.24553C11.5787 1.01244 11.4861 0.788899 11.3213 0.624081C11.1564 0.459263 10.9329 0.366669 10.6998 0.366669ZM10.8254 12.2941C10.8254 12.3274 10.8121 12.3593 10.7886 12.3828C10.765 12.4064 10.7331 12.4196 10.6998 12.4196H1.66011C1.62681 12.4196 1.59488 12.4064 1.57133 12.3828C1.54779 12.3593 1.53456 12.3274 1.53456 12.2941V1.24553C1.53456 1.21223 1.54779 1.1803 1.57133 1.15675C1.59488 1.13321 1.62681 1.11998 1.66011 1.11998H10.6998C10.7331 1.11998 10.765 1.13321 10.7886 1.15675C10.8121 1.1803 10.8254 1.21223 10.8254 1.24553V12.2941ZM3.79449 2.75215C3.79449 2.65225 3.83417 2.55645 3.9048 2.48581C3.97544 2.41518 4.07124 2.37549 4.17114 2.37549H8.18879C8.28868 2.37549 8.38449 2.41518 8.45512 2.48581C8.52576 2.55645 8.56544 2.65225 8.56544 2.75215C8.56544 2.85204 8.52576 2.94784 8.45512 3.01848C8.38449 3.08912 8.28868 3.1288 8.18879 3.1288H4.17114C4.07124 3.1288 3.97544 3.08912 3.9048 3.01848C3.83417 2.94784 3.79449 2.85204 3.79449 2.75215Z" fill="url(#paint0_linear_1_242)"/>
<defs>
<linearGradient id="paint0_linear_1_242" x1="5.16937" y1="-6.60816" x2="18.5403" y2="18.9567" gradientUnits="userSpaceOnUse">
<stop stop-color="#48B8E6"/>
<stop offset="1" stop-color="#BAD881"/>
</linearGradient>
</defs>
</svg>