<svg width="14" height="12" viewBox="0 0 14 12" fill="none" xmlns="http://www.w3.org/2000/svg">
<path d="M13.4619 1.1868H4.29669C4.22764 1.1868 4.17114 1.24329 4.17114 1.31235V2.19121C4.17114 2.26026 4.22764 2.31676 4.29669 2.31676H13.4619C13.531 2.31676 13.5875 2.26026 13.5875 2.19121V1.31235C13.5875 1.24329 13.531 1.1868 13.4619 1.1868ZM13.4619 5.64387H4.29669C4.22764 5.64387 4.17114 5.70037 4.17114 5.76942V6.64828C4.17114 6.71734 4.22764 6.77384 4.29669 6.77384H13.4619C13.531 6.77384 13.5875 6.71734 13.5875 6.64828V5.76942C13.5875 5.70037 13.531 5.64387 13.4619 5.64387ZM13.4619 10.1009H4.29669C4.22764 10.1009 4.17114 10.1574 4.17114 10.2265V11.1054C4.17114 11.1744 4.22764 11.2309 4.29669 11.2309H13.4619C13.531 11.2309 13.5875 11.1744 13.5875 11.1054V10.2265C13.5875 10.1574 13.531 10.1009 13.4619 10.1009ZM0.78125 1.75178C0.78125 1.86719 0.803982 1.98147 0.848149 2.0881C0.892316 2.19473 0.957053 2.29162 1.03866 2.37323C1.12027 2.45484 1.21716 2.51957 1.32379 2.56374C1.43041 2.60791 1.5447 2.63064 1.66011 2.63064C1.77552 2.63064 1.88981 2.60791 1.99644 2.56374C2.10306 2.51957 2.19995 2.45484 2.28156 2.37323C2.36317 2.29162 2.4279 2.19473 2.47207 2.0881C2.51624 1.98147 2.53897 1.86719 2.53897 1.75178C2.53897 1.63636 2.51624 1.52208 2.47207 1.41545C2.4279 1.30882 2.36317 1.21194 2.28156 1.13033C2.19995 1.04872 2.10306 0.983983 1.99644 0.939816C1.88981 0.895649 1.77552 0.872917 1.66011 0.872917C1.5447 0.872917 1.43041 0.895649 1.32379 0.939816C1.21716 0.983983 1.12027 1.04872 1.03866 1.13033C0.957053 1.21194 0.892316 1.30882 0.848149 1.41545C0.803982 1.52208 0.78125 1.63636 0.78125 1.75178V1.75178ZM0.78125 6.20885C0.78125 6.32427 0.803982 6.43855 0.848149 6.54518C0.892316 6.65181 0.957053 6.74869 1.03866 6.8303C1.12027 6.91191 1.21716 6.97665 1.32379 7.02082C1.43041 7.06498 1.5447 7.08771 1.66011 7.08771C1.77552 7.08771 1.88981 7.06498 1.99644 7.02082C2.10306 6.97665 2.19995 6.91191 2.28156 6.8303C2.36317 6.74869 2.4279 6.65181 2.47207 6.54518C2.51624 6.43855 2.53897 6.32427 2.53897 6.20885C2.53897 6.09344 2.51624 5.97916 2.47207 5.87253C2.4279 5.7659 2.36317 5.66902 2.28156 5.58741C2.19995 5.5058 2.10306 5.44106 1.99644 5.39689C1.88981 5.35273 1.77552 5.32999 1.66011 5.32999C1.5447 5.32999 1.43041 5.35273 1.32379 5.39689C1.21716 5.44106 1.12027 5.5058 1.03866 5.58741C0.957053 5.66902 0.892316 5.7659 0.848149 5.87253C0.803982 5.97916 0.78125 6.09344 0.78125 6.20885V6.20885ZM0.78125 10.6659C0.78125 10.7813 0.803982 10.8956 0.848149 11.0023C0.892316 11.1089 0.957053 11.2058 1.03866 11.2874C1.12027 11.369 1.21716 11.4337 1.32379 11.4779C1.43041 11.5221 1.5447 11.5448 1.66011 11.5448C1.77552 11.5448 1.88981 11.5221 1.99644 11.4779C2.10306 11.4337 2.19995 11.369 2.28156 11.2874C2.36317 11.2058 2.4279 11.1089 2.47207 11.0023C2.51624 10.8956 2.53897 10.7813 2.53897 10.6659C2.53897 10.5505 2.51624 10.4362 2.47207 10.3296C2.4279 10.223 2.36317 10.1261 2.28156 10.0445C2.19995 9.96287 2.10306 9.89814 1.99644 9.85397C1.88981 9.8098 1.77552 9.78707 1.66011 9.78707C1.5447 9.78707 1.43041 9.8098 1.32379 9.85397C1.21716 9.89814 1.12027 9.96287 1.03866 10.0445C0.957053 10.1261 0.892316 10.223 0.848149 10.3296C0.803982 10.4362 0.78125 10.5505 0.78125 10.6659V10.6659Z" fill="url(#paint0_linear_1_234)"/>
<defs>
<linearGradient id="paint0_linear_1_234" x1="5.98576" y1="-4.93944" x2="14.7699" y2="18.9643" gradientUnits="userSpaceOnUse">
<stop stop-color="#48B8E6"/>
<stop offset="1" stop-color="#BAD881"/>
</linearGradient>
</defs>
</svg>