<svg width="15" height="18" viewBox="0 0 15 18" fill="none" xmlns="http://www.w3.org/2000/svg">
<path d="M2.49957 0C2.6653 0 2.82424 0.0677182 2.94143 0.188258C3.05862 0.308797 3.12446 0.472283 3.12446 0.642751V1.2855H5.62402V0.642751C5.62402 0.472283 5.68986 0.308797 5.80705 0.188258C5.92424 0.0677182 6.08318 0 6.24891 0C6.41465 0 6.57359 0.0677182 6.69078 0.188258C6.80797 0.308797 6.87381 0.472283 6.87381 0.642751V1.2855H9.37337V0.642751C9.37337 0.472283 9.43921 0.308797 9.5564 0.188258C9.67359 0.0677182 9.83253 0 9.99826 0C10.164 0 10.3229 0.0677182 10.4401 0.188258C10.5573 0.308797 10.6232 0.472283 10.6232 0.642751V1.2855C11.1203 1.2855 11.5972 1.48866 11.9488 1.85028C12.3003 2.21189 12.4978 2.70235 12.4978 3.21376V6.47379C12.0498 6.55394 11.6236 6.7319 11.248 6.99571V3.21376C11.248 3.04329 11.1822 2.8798 11.065 2.75926C10.9478 2.63872 10.7889 2.57101 10.6232 2.57101H1.87467C1.70894 2.57101 1.55 2.63872 1.43281 2.75926C1.31562 2.8798 1.24978 3.04329 1.24978 3.21376V16.0688C1.24978 16.2393 1.31562 16.4027 1.43281 16.5233C1.55 16.6438 1.70894 16.7115 1.87467 16.7115H3.80809V16.7141C3.70149 17.14 3.73129 17.5899 3.89307 17.997H1.87467C1.37748 17.997 0.900649 17.7939 0.549079 17.4323C0.19751 17.0707 0 16.5802 0 16.0688V3.21376C0 2.70235 0.19751 2.21189 0.549079 1.85028C0.900649 1.48866 1.37748 1.2855 1.87467 1.2855V0.642751C1.87467 0.472283 1.94051 0.308797 2.0577 0.188258C2.17489 0.0677182 2.33383 0 2.49957 0ZM8.74848 8.99852C8.88221 8.99852 9.00594 9.04223 9.10842 9.1155L7.97112 10.284H3.74935C3.58362 10.284 3.42467 10.2163 3.30748 10.0958C3.19029 9.97523 3.12446 9.81174 3.12446 9.64127C3.12446 9.4708 3.19029 9.30732 3.30748 9.18678C3.42467 9.06624 3.58362 8.99852 3.74935 8.99852H8.74848ZM4.99413 13.4142C4.97441 13.2595 4.90064 13.1174 4.78657 13.0145C4.67251 12.9116 4.52595 12.855 4.37424 12.855H3.74935C3.58362 12.855 3.42467 12.9227 3.30748 13.0433C3.19029 13.1638 3.12446 13.3273 3.12446 13.4978C3.12446 13.6682 3.19029 13.8317 3.30748 13.9523C3.42467 14.0728 3.58362 14.1405 3.74935 14.1405H4.37424C4.4409 14.1407 4.50715 14.1298 4.57046 14.1084C4.69169 13.8654 4.83291 13.6328 4.99413 13.4142ZM3.74935 5.14201C3.58362 5.14201 3.42467 5.20973 3.30748 5.33027C3.19029 5.45081 3.12446 5.61429 3.12446 5.78476C3.12446 5.95523 3.19029 6.11872 3.30748 6.23926C3.42467 6.3598 3.58362 6.42751 3.74935 6.42751H8.74848C8.91421 6.42751 9.07316 6.3598 9.19035 6.23926C9.30754 6.11872 9.37337 5.95523 9.37337 5.78476C9.37337 5.61429 9.30754 5.45081 9.19035 5.33027C9.07316 5.20973 8.91421 5.14201 8.74848 5.14201H3.74935ZM11.6705 8.29792C12.0362 7.9217 12.5323 7.71034 13.0496 7.71034C13.5669 7.71034 14.063 7.9217 14.4287 8.29792C14.7945 8.67414 15 9.18441 15 9.71647C15 10.2485 14.7945 10.7588 14.4287 11.135L9.06842 16.6473C8.62375 17.105 8.06648 17.4298 7.4562 17.587L5.94272 17.9765C5.81494 18.0094 5.68105 18.0077 5.55409 17.9716C5.42713 17.9355 5.31144 17.8661 5.2183 17.7703C5.12515 17.6745 5.05773 17.5555 5.02261 17.4249C4.98748 17.2943 4.98585 17.1566 5.01788 17.0252L5.39781 15.4697C5.55029 14.8411 5.86523 14.2678 6.31015 13.8114L11.6705 8.29792Z" fill="#4F5B67"/>
</svg>
