<svg width="448" height="40" viewBox="0 0 448 40" fill="none" xmlns="http://www.w3.org/2000/svg">
    <g clip-path="url(#clip0_5_869)">
    <path fill-rule="evenodd" clip-rule="evenodd" d="M437 9.02344C433.203 9.02344 430.125 12.2385 430.125 16.2036V16.6287C430.125 18.4181 429.213 20.0787 427.732 20.9659L427.731 20.9661C426.806 21.5211 426 22.3182 426 23.3838C426 24.1939 426.472 24.8513 427.072 25.3454C427.68 25.8458 428.517 26.265 429.491 26.6037C431.444 27.2837 434.099 27.6919 437 27.6919C439.901 27.6919 442.556 27.2837 444.509 26.6037C445.483 26.265 446.32 25.8458 446.928 25.3454C447.528 24.8513 448 24.1939 448 23.3838C448 22.3182 447.194 21.5211 446.269 20.9661L446.268 20.9656C444.787 20.0801 443.875 18.4184 443.875 16.6287V16.2036C443.875 12.2385 440.797 9.02344 437 9.02344ZM431.5 16.2036C431.5 13.0316 433.963 10.4595 437 10.4595C440.037 10.4595 442.5 13.0316 442.5 16.2036V16.6287C442.5 18.9256 443.67 21.0663 445.584 22.2115C446.421 22.7134 446.625 23.1397 446.625 23.3838C446.625 23.5653 446.52 23.8525 446.077 24.2175C445.641 24.5761 444.968 24.9305 444.075 25.2414C442.296 25.8606 439.794 26.2559 437 26.2559C434.206 26.2559 431.704 25.8606 429.925 25.2414C429.032 24.9305 428.359 24.5761 427.923 24.2175C427.48 23.8525 427.375 23.5653 427.375 23.3838C427.375 23.1397 427.579 22.7134 428.416 22.2115C430.33 21.0651 431.5 18.9261 431.5 16.6287V16.2036ZM440.781 29.4156C440.934 29.0522 440.775 28.6289 440.427 28.4701C440.079 28.3112 439.674 28.477 439.522 28.8404C439.096 29.8565 438.126 30.564 437 30.564C435.874 30.564 434.905 29.8567 434.478 28.8409C434.326 28.4778 433.92 28.3126 433.572 28.4719C433.225 28.6312 433.066 29.0548 433.219 29.4179C433.856 30.9353 435.307 32.0001 437 32.0001C438.692 32.0001 440.145 30.9355 440.781 29.4156Z" fill="#717D8A"/>
    </g>
    <path d="M445.953 11.7696C445.953 13.5961 444.541 15.0392 442.844 15.0392C441.147 15.0392 439.734 13.5961 439.734 11.7696C439.734 9.94316 441.147 8.5 442.844 8.5C444.541 8.5 445.953 9.94316 445.953 11.7696Z" fill="#BB251A" stroke="#FAFAFA"/>
    <defs>
    <!-- <clipPath id="clip0_5_869">
    <rect width="22" height="22.9766" fill="white" transform="translate(426 9.02344)"/>
    </clipPath> -->
    </defs>
    </svg>
    