<svg width="18" height="18" viewBox="0 0 18 18" fill="none" xmlns="http://www.w3.org/2000/svg">
<path d="M1.89853 18C1.36983 18 0.921228 17.8158 0.552737 17.4473C0.184245 17.0788 0 16.6302 0 16.1015V1.92256C0 1.39386 0.184245 0.941255 0.552737 0.564753C0.921228 0.188251 1.36983 0 1.89853 0H16.0774C16.6061 0 17.0587 0.188251 17.4352 0.564753C17.8117 0.941255 18 1.39386 18 1.92256V16.1015C18 16.6302 17.8117 17.0788 17.4352 17.4473C17.0587 17.8158 16.6061 18 16.0774 18H1.89853ZM7.30574 16.1015V9.73298H1.89853V16.1015H7.30574ZM8.74766 16.1015H16.0774V9.73298H8.74766V16.1015ZM1.89853 8.29105H16.0774V1.92256H1.89853V8.29105Z" fill="#4F5B67"/>
</svg>
