<svg width="15" height="18" viewBox="0 0 15 18" fill="none" xmlns="http://www.w3.org/2000/svg">
<path d="M9 17C7.94943 17 6.90914 16.7931 5.93853 16.391C4.96793 15.989 4.08601 15.3997 3.34315 14.6569C2.60028 13.914 2.011 13.0321 1.60896 12.0615C1.20693 11.0909 1 10.0506 1 9C1 7.94943 1.20693 6.90914 1.60896 5.93853C2.011 4.96793 2.60028 4.08601 3.34315 3.34315C4.08601 2.60028 4.96793 2.011 5.93853 1.60896C6.90914 1.20693 7.94943 1 9 1M13.4444 9L9.88889 5.44444L13.4444 9ZM13.4444 9L9.88889 12.5556L13.4444 9ZM13.4444 9H4.55556H13.4444Z" stroke="#4F5B67" stroke-width="1.5" stroke-linecap="round" stroke-linejoin="round"/>
</svg>

    