<svg width="18" height="20" viewBox="0 0 18 20" fill="none" xmlns="http://www.w3.org/2000/svg">
<path d="M6.01743 14.5H8.8732M1.25781 2.8V17.2C1.25781 17.6774 1.4584 18.1352 1.81544 18.4728C2.17248 18.8104 2.65673 19 3.16166 19H14.5847C15.0897 19 15.5739 18.8104 15.931 18.4728C16.288 18.1352 16.4886 17.6774 16.4886 17.2V6.7078C16.4886 6.468 16.4378 6.23063 16.3394 6.00962C16.241 5.78861 16.0969 5.58842 15.9155 5.4208L11.689 1.513C11.3333 1.18419 10.8556 1.00006 10.3582 1H3.16166C2.65673 1 2.17248 1.18964 1.81544 1.52721C1.4584 1.86477 1.25781 2.32261 1.25781 2.8V2.8ZM6.01743 10.9H11.729H6.01743Z" stroke="#0C1116" stroke-width="1.5" stroke-linecap="round" stroke-linejoin="round"/>
<path d="M10.777 1V4.6C10.777 5.07739 10.9776 5.53523 11.3347 5.87279C11.6917 6.21036 12.176 6.4 12.6809 6.4H16.4886" stroke="#0C1116" stroke-width="1.5" stroke-linejoin="round"/>
</svg>
