<svg width="18" height="17" viewBox="0 0 18 17" fill="none" xmlns="http://www.w3.org/2000/svg">
<path d="M8.22273 16.6091C7.05 16.5955 5.9625 16.3739 4.96023 15.9443C3.95795 15.5148 3.09205 14.9284 2.3625 14.1852C1.63295 13.442 1.05682 12.5659 0.634091 11.5568C0.211364 10.5477 0 9.46364 0 8.30455C0 7.13182 0.214773 6.0375 0.644318 5.02159C1.07386 4.00568 1.66023 3.12614 2.40341 2.38295C3.14659 1.63977 4.02614 1.05682 5.04205 0.634091C6.05795 0.211364 7.14545 0 8.30455 0C9.10909 0 9.89318 0.1125 10.6568 0.3375C11.4205 0.5625 12.1636 0.9 12.8864 1.35C13.0636 1.45909 13.1659 1.60568 13.1932 1.78977C13.2205 1.97386 13.1795 2.14773 13.0705 2.31136C12.9477 2.46136 12.7977 2.55682 12.6205 2.59773C12.4432 2.63864 12.2659 2.61136 12.0886 2.51591C11.5023 2.14773 10.892 1.86818 10.258 1.67727C9.62386 1.48636 8.97273 1.39091 8.30455 1.39091C6.34091 1.39091 4.69773 2.05227 3.375 3.375C2.05227 4.69773 1.39091 6.34091 1.39091 8.30455C1.39091 10.2682 2.05227 11.9114 3.375 13.2341C4.69773 14.5568 6.34091 15.2182 8.30455 15.2182C8.80909 15.2182 9.30682 15.1636 9.79773 15.0545C10.2886 14.9455 10.7659 14.7886 11.2295 14.5841C11.4341 14.5023 11.6284 14.4818 11.8125 14.5227C11.9966 14.5636 12.1364 14.6659 12.2318 14.8295C12.3545 14.9932 12.3852 15.1705 12.3239 15.3614C12.2625 15.5523 12.15 15.6818 11.9864 15.75C11.4 16.05 10.7932 16.2682 10.1659 16.4045C9.53864 16.5409 8.89091 16.6091 8.22273 16.6091V16.6091ZM6.60682 11.6182L4.15227 9.14318C4.01591 9.00682 3.94773 8.84318 3.94773 8.65227C3.94773 8.46136 4.02273 8.28409 4.17273 8.12045C4.30909 7.98409 4.47955 7.9125 4.68409 7.90568C4.88864 7.89886 5.05909 7.97045 5.19545 8.12045L7.09773 10.0432L15.0955 2.025C15.2318 1.90227 15.3989 1.8375 15.5966 1.83068C15.7943 1.82386 15.9682 1.88864 16.1182 2.025C16.2682 2.18864 16.3432 2.36932 16.3432 2.56705C16.3432 2.76477 16.2682 2.93864 16.1182 3.08864L7.56818 11.6182C7.43182 11.7545 7.26818 11.8227 7.07727 11.8227C6.88636 11.8227 6.72955 11.7545 6.60682 11.6182V11.6182ZM14.85 14.7273C14.6455 14.7273 14.4784 14.6625 14.3489 14.533C14.2193 14.4034 14.1545 14.2364 14.1545 14.0318V12.2727H12.3955C12.1909 12.2727 12.0239 12.208 11.8943 12.0784C11.7648 11.9489 11.7 11.7818 11.7 11.5773C11.7 11.3727 11.7648 11.2057 11.8943 11.0761C12.0239 10.9466 12.1909 10.8818 12.3955 10.8818H14.1545V9.12273C14.1545 8.91818 14.2193 8.75114 14.3489 8.62159C14.4784 8.49205 14.6455 8.42727 14.85 8.42727C15.0545 8.42727 15.2216 8.49205 15.3511 8.62159C15.4807 8.75114 15.5455 8.91818 15.5455 9.12273V10.8818H17.3045C17.5091 10.8818 17.6761 10.9466 17.8057 11.0761C17.9352 11.2057 18 11.3727 18 11.5773C18 11.7818 17.9352 11.9489 17.8057 12.0784C17.6761 12.208 17.5091 12.2727 17.3045 12.2727H15.5455V14.0318C15.5455 14.2364 15.4807 14.4034 15.3511 14.533C15.2216 14.6625 15.0545 14.7273 14.85 14.7273Z" fill="#4F5B67"/>
</svg>
