<svg width="15" height="13" viewBox="0 0 15 16" fill="none" xmlns="http://www.w3.org/2000/svg">
<path d="M13.5 16C13.0833 16 12.7293 15.854 12.438 15.562C12.146 15.2707 12 14.9167 12 14.5V1.5C12 1.08333 12.146 0.729334 12.438 0.438C12.7293 0.146 13.0833 0 13.5 0C13.9167 0 14.2707 0.146 14.562 0.438C14.854 0.729334 15 1.08333 15 1.5V14.5C15 14.9167 14.854 15.2707 14.562 15.562C14.2707 15.854 13.9167 16 13.5 16ZM1.5 16C1.3 16 1.10833 15.9623 0.925 15.887C0.741667 15.8123 0.579334 15.704 0.438 15.562C0.296 15.4207 0.187667 15.2583 0.113 15.075C0.0376666 14.8917 0 14.7 0 14.5V11.5C0 11.0833 0.146 10.7293 0.438 10.438C0.729334 10.146 1.08333 10 1.5 10C1.91667 10 2.27067 10.146 2.562 10.438C2.854 10.7293 3 11.0833 3 11.5V14.5C3 14.7 2.96267 14.8917 2.888 15.075C2.81267 15.2583 2.704 15.4207 2.562 15.562C2.42067 15.704 2.25833 15.8123 2.075 15.887C1.89167 15.9623 1.7 16 1.5 16ZM7.5 16C7.08333 16 6.72933 15.854 6.438 15.562C6.146 15.2707 6 14.9167 6 14.5V6.5C6 6.08333 6.146 5.72933 6.438 5.438C6.72933 5.146 7.08333 5 7.5 5C7.91667 5 8.27067 5.146 8.562 5.438C8.854 5.72933 9 6.08333 9 6.5V14.5C9 14.9167 8.854 15.2707 8.562 15.562C8.27067 15.854 7.91667 16 7.5 16Z" fill="#A8B0B9"/>
</svg>