<svg width="14" height="7" viewBox="0 0 14 7" fill="none" xmlns="http://www.w3.org/2000/svg">
<path d="M0.580194 1.03403C0.761658 0.884057 1.00774 0.799805 1.26433 0.799805C1.52092 0.799805 1.76701 0.884057 1.94847 1.03403L6.73841 4.99403L11.5284 1.03403C11.7109 0.888308 11.9553 0.807672 12.209 0.809494C12.4627 0.811317 12.7054 0.895453 12.8848 1.04378C13.0643 1.19211 13.166 1.39276 13.1682 1.60251C13.1704 1.81227 13.0729 2.01435 12.8966 2.16523L7.42255 6.69083C7.24109 6.84081 6.995 6.92506 6.73841 6.92506C6.48182 6.92506 6.23574 6.84081 6.05427 6.69083L0.580194 2.16523C0.398785 2.01521 0.296875 1.81177 0.296875 1.59963C0.296875 1.3875 0.398785 1.18406 0.580194 1.03403V1.03403Z" fill="#0C1116"/>
</svg>